# xmcd CD database file
#
# Track frame offsets:
#	150
#	15075
#	41275
#	76400
#	92675
#	145550
#	157805
#	195387
#	243105
#	257930
#	294780
#
# Disc length: 4317 seconds
#
# Revision: 0
# Processed by: cddbd v1.5.2PL0 Copyright (c) Steve Scherf et al.
# Submitted via: CDex 1.51
#
DISCID=7210db0b
DTITLE=Chris Barber - Jubilee Special
DYEAR=1900
DGENRE=Jazz
TTITLE0=Stevedoors Stomp
TTITLE1=Come Friday
TTITLE2=Sweet Sue
TTITLE3=Wild Cat Blues
TTITLE4=St. Louis Blues
TTITLE5=Alligator Hop
TTITLE6=Good Queen Bess
TTITLE7=Creole Love Call
TTITLE8=South Rampart Street Parade
TTITLE9=Snag it
TTITLE10=Easter Parade
EXTD=
EXTT0=
EXTT1=
EXTT2=
EXTT3=
EXTT4=
EXTT5=
EXTT6=
EXTT7=
EXTT8=
EXTT9=
EXTT10=
PLAYORDER=
